<svg id="visual" viewBox="0 0 900 600" width="900" height="600" xmlns="http://www.w3.org/2000/svg" xmlns:xlink="http://www.w3.org/1999/xlink" version="1.1"><rect x="0" y="0" width="900" height="600" fill="#325D86"></rect><path d="M0 262L56 262L56 274L113 274L113 422L169 422L169 291L225 291L225 366L281 366L281 387L338 387L338 374L394 374L394 326L450 326L450 387L506 387L506 270L563 270L563 313L619 313L619 362L675 362L675 246L731 246L731 357L788 357L788 381L844 381L844 284L900 284L900 334L900 601L900 601L844 601L844 601L788 601L788 601L731 601L731 601L675 601L675 601L619 601L619 601L563 601L563 601L506 601L506 601L450 601L450 601L394 601L394 601L338 601L338 601L281 601L281 601L225 601L225 601L169 601L169 601L113 601L113 601L56 601L56 601L0 601Z" fill="#6a8288"></path><path d="M0 367L56 367L56 337L113 337L113 364L169 364L169 428L225 428L225 362L281 362L281 435L338 435L338 434L394 434L394 374L450 374L450 379L506 379L506 362L563 362L563 471L619 471L619 363L675 363L675 425L731 425L731 368L788 368L788 347L844 347L844 354L900 354L900 455L900 601L900 601L844 601L844 601L788 601L788 601L731 601L731 601L675 601L675 601L619 601L619 601L563 601L563 601L506 601L506 601L450 601L450 601L394 601L394 601L338 601L338 601L281 601L281 601L225 601L225 601L169 601L169 601L113 601L113 601L56 601L56 601L0 601Z" fill="#80997a"></path><path d="M0 525L56 525L56 548L113 548L113 442L169 442L169 446L225 446L225 526L281 526L281 502L338 502L338 527L394 527L394 552L450 552L450 459L506 459L506 494L563 494L563 499L619 499L619 462L675 462L675 479L731 479L731 463L788 463L788 478L844 478L844 469L900 469L900 442L900 601L900 601L844 601L844 601L788 601L788 601L731 601L731 601L675 601L675 601L619 601L619 601L563 601L563 601L506 601L506 601L450 601L450 601L394 601L394 601L338 601L338 601L281 601L281 601L225 601L225 601L169 601L169 601L113 601L113 601L56 601L56 601L0 601Z" fill="#d39b7a"></path></svg>